<?xml version="1.0" encoding="utf-8"?>
<!-- Generator: Adobe Illustrator 19.0.0, SVG Export Plug-In . SVG Version: 6.00 Build 0)  -->
<svg version="1.1" id="w" xmlns="http://www.w3.org/2000/svg" xmlns:xlink="http://www.w3.org/1999/xlink" x="0px" y="0px"
	 viewBox="0 0 1024 1024" style="enable-background:new 0 0 1024 1024;" xml:space="preserve">
<style type="text/css">
	.st0{fill:#FFFFFF;}
	.st1{fill:#663300;}
	.st2{fill:#669900;}
</style>
<rect id="XMLID_18_" x="-1044" class="st0" width="1024" height="1024"/>
<g id="XMLID_3_">
	<path id="XMLID_17_" d="M-803.5,491.5c-7.8,4.7-43.2,40.1-48.3,30.4c-4.6-8.7,55.4-50.8,64.7-51.7c4.7-0.5,6.7,1.4,5.7,6.1
		c-4.9,23.1-26.8,39.6-32.7,63.2c0.2,0.2,0.3,0.3,0.5,0.5c22-15.6,39.9-36.9,58.9-56c20.2-20.2,41.8-38.8,61.8-59.2
		c33-33.7,50-61.1,89.1-87.8c-7.9,21.7-27.6,39.9-40.2,54.2c-22.1,25.4-36.8,38.4-61,61.8c-20.5,19.8-40.9,39.5-61.2,59.5
		c-15.5,15.2-37.7,45.2-61.2,46.4c-18.6,0.9,20.5-60.9,24.6-66.8C-803.1,491.8-803.3,491.6-803.5,491.5
		C-804,491.8-803.3,491.6-803.5,491.5z"/>
	<path id="XMLID_15_" d="M-260.8,343.1c-21.3,42.7-64.3,78.3-95.9,113.2c-15.8,17.4-33.3,33-49.2,50.3c-12.1,13.2-29.7,43-48.8,46.1
		c-3.8,0.6-5-0.3-5-4.2c0-15.7,7.8-26.2,15.9-38.6c-0.2-0.2-0.5-0.4-0.7-0.7c-3.7,2.6-7.7,4.8-11.9,6.6c-13.1,3.8,8-30.1,8.8-31.2
		c1.7-2.2,22.7-19,19.8-11.5c-2.2,9.2-13.3,15.5-16.8,24.9c4-1.8,8-3.5,12.2-4.8c11.9-3.8-9.7,35.4-11.1,39.7
		c0.3,0.2,0.6,0.5,0.9,0.7c22.7-36.4,59.7-65.8,88.9-96.9c28.9-30.8,57-70.2,92.3-94C-261.2,342.8-261,342.9-260.8,343.1
		C-262.1,345.9-261,342.9-260.8,343.1z"/>
	<path id="XMLID_14_" d="M-491,508.8c3.3-4,8.7-13.8,8.2-17.9c-1.8-15.7-21.1,3.6-23.5,0.9c-4.4-5,23.9-20.1,28.3-20.5
		c6.1-0.5,9.3,7.6,9.4,11.4c0.1,12.8-5.6,26.8-11.4,38.4c-3.8,7.7-8.3,12.2-12.2,12.3c-4.6-1.8-4.3-4.2-6.5-10.9
		c-8-23.5-49.9,36.1-55.2,38.2c-2.3,0.9-4-0.1-3.8-2.5C-555.2,533.1-509.7,495.8-491,508.8z"/>
	<path id="XMLID_13_" d="M-700.2,518.4c3,1,17.2-21.6,5.8-25.2c-4.9-1.5-24.7,9.1-25.2,6.7c-1-5.4,20-17.7,31-20.2
		c6.3-1.4,11.3,2.6,11.5,10.3c0.3,11.4-4,24.7-9.9,34.4c-2.7,4.5-6.8,10.1-11.9,12.4c-6.8,3-7.9-1.4-13.2-4.9
		c-10.8-7-24.2,4.3-31.8,11.3c-2.8,2.6-28.3,27.8-30.6,20.2c-1.2-4.1,9.9-15,12.3-17.6c5.2-5.9,11-11.3,17.3-16
		C-731.5,519.7-716.9,513-700.2,518.4C-699.8,518.6-706.9,516.3-700.2,518.4z"/>
	<path id="XMLID_11_" d="M-608.5,493.4c-1.9-0.1-4,2.4-5.3,3.6c-9.3,8.4-18.7,16.8-27.8,25.4c-10.6,9.9-21.5,19.8-34.3,26.8
		c-0.4,0.2-0.9,0.5-1.3,0.7c-6.3,3.3,3.9-11.1,4.1-11.5c6.8-9.7,18.5-19.3,27-27.6c4.8-4.7,54.2-45.7,55-29.4
		c0.3,6.7-19.2,67.9-29.7,58.2c-1-0.9,1-6,1.3-7c1.4-4.8,3-9.6,4.5-14.4C-614.1,516-605.7,493.8-608.5,493.4
		C-608.4,493.4-608.4,493.4-608.5,493.4z"/>
	<path id="XMLID_10_" d="M-718.1,584.8c-1.7-1.5,24.7-20,32.9-23.2c1.9-0.7,1.6,2.4-3.2,8.8c-5.9,7.7-38.2,43.3-45.1,24.2
		c-1.3-3.6,2.4-11.8-1.3-14.3c-2.9-1.9-8.1,3-10.2,3.9c-9.5,4.2-6.6-2.2-1.1-7.3c4.2-4,13.8-11.8,20-11.7
		C-712.6,565.5-721,582.3-718.1,584.8z"/>
	<path id="XMLID_9_" d="M-705.1,686.7c-2.1,0-3.2-1.3-2.5-3c6.8-15.8,139.2-171.7,150.5-184.9c5.7-6.7,8.5-9.7,14.6-16.1
		c0.5-0.5,16.8-15.6,15.7-10.4c-3.1,14.8-18.1,26.7-27,38C-563.2,522.2-690.7,678.2-705.1,686.7
		C-706.9,687.7-704.9,686.6-705.1,686.7z"/>
	<path id="XMLID_8_" class="st1" d="M-393.2,554.2c11.8-3.6,11.2-9.9,16.1-20.3c-3.4,7.2-23.5-1.6-28.5,5.4
		C-411.9,548.5-402.7,557.1-393.2,554.2z"/>
	<path id="XMLID_6_" class="st2" d="M-271.7,420.6c21.3-24.8,44.6-49,59.7-78.7c-61.3,55.7-123.5,116.2-164,190
		c11-18.6,36.9-33.7,51.3-50.1C-306.8,461.5-289.3,441.1-271.7,420.6C-256.1,402.5-282.7,433.4-271.7,420.6z"/>
</g>
<rect id="XMLID_113_" width="1024" height="1024"/>
<g id="XMLID_103_">
	<path id="XMLID_112_" class="st0" d="M240.5,491.5c-7.8,4.7-43.2,40.1-48.3,30.4c-4.6-8.7,55.4-50.8,64.7-51.7
		c4.7-0.5,6.7,1.4,5.7,6.1c-4.9,23.1-26.8,39.6-32.7,63.2c0.2,0.2,0.3,0.3,0.5,0.5c22-15.6,39.9-36.9,58.9-56
		c20.2-20.2,41.8-38.8,61.8-59.2c33-33.7,50-61.1,89.1-87.8c-7.9,21.7-27.6,39.9-40.2,54.2c-22.1,25.4-36.8,38.4-61,61.8
		c-20.5,19.8-40.9,39.5-61.2,59.5c-15.5,15.2-37.7,45.2-61.2,46.4c-18.6,0.9,20.5-60.9,24.6-66.8
		C240.9,491.8,240.7,491.6,240.5,491.5C240,491.8,240.7,491.6,240.5,491.5z"/>
	<path id="XMLID_111_" class="st0" d="M783.2,343.1c-21.3,42.7-64.3,78.3-95.9,113.2c-15.8,17.4-33.3,33-49.2,50.3
		c-12.1,13.2-29.7,43-48.8,46.1c-3.8,0.6-5-0.3-5-4.2c0-15.7,7.8-26.2,15.9-38.6c-0.2-0.2-0.5-0.4-0.7-0.7
		c-3.7,2.6-7.7,4.8-11.9,6.6c-13.1,3.8,8-30.1,8.8-31.2c1.7-2.2,22.7-19,19.8-11.5c-2.2,9.2-13.3,15.5-16.8,24.9
		c4-1.8,8-3.5,12.2-4.8c11.9-3.8-9.7,35.4-11.1,39.7c0.3,0.2,0.6,0.5,0.9,0.7c22.7-36.4,59.7-65.8,88.9-96.9
		c28.9-30.8,57-70.2,92.3-94C782.8,342.8,783,342.9,783.2,343.1C781.9,345.9,783,342.9,783.2,343.1z"/>
	<path id="XMLID_110_" class="st0" d="M553,508.8c3.3-4,8.7-13.8,8.2-17.9c-1.8-15.7-21.1,3.6-23.5,0.9c-4.4-5,23.9-20.1,28.3-20.5
		c6.1-0.5,9.3,7.6,9.4,11.4c0.1,12.8-5.6,26.8-11.4,38.4c-3.8,7.7-8.3,12.2-12.2,12.3c-4.6-1.8-4.3-4.2-6.5-10.9
		c-8-23.5-49.9,36.1-55.2,38.2c-2.3,0.9-4-0.1-3.8-2.5C488.8,533.1,534.3,495.8,553,508.8z"/>
	<path id="XMLID_109_" class="st0" d="M343.8,518.4c3,1,17.2-21.6,5.8-25.2c-4.9-1.5-24.7,9.1-25.2,6.7c-1-5.4,20-17.7,31-20.2
		c6.3-1.4,11.3,2.6,11.5,10.3c0.3,11.4-4,24.7-9.9,34.4c-2.7,4.5-6.8,10.1-11.9,12.4c-6.8,3-7.9-1.4-13.2-4.9
		c-10.7-7-24.2,4.3-31.8,11.3c-2.8,2.6-28.3,27.8-30.6,20.2c-1.2-4.1,9.9-15,12.3-17.6c5.2-5.9,11-11.3,17.3-16
		C312.5,519.7,327.1,513,343.8,518.4C344.2,518.6,337.1,516.3,343.8,518.4z"/>
	<path id="XMLID_108_" class="st0" d="M435.5,493.4c-1.9-0.1-4,2.4-5.3,3.6c-9.3,8.4-18.7,16.8-27.8,25.4
		c-10.6,9.9-21.5,19.8-34.3,26.8c-0.4,0.2-0.9,0.5-1.3,0.7c-6.3,3.3,3.9-11.1,4.1-11.5c6.8-9.7,18.5-19.3,27-27.6
		c4.8-4.7,54.2-45.7,55-29.4c0.3,6.7-19.2,67.9-29.7,58.2c-1-0.9,1-6,1.3-7c1.4-4.8,3-9.6,4.5-14.4
		C429.9,516,438.3,493.8,435.5,493.4C435.6,493.4,435.6,493.4,435.5,493.4z"/>
	<path id="XMLID_107_" class="st0" d="M325.9,584.8c-1.7-1.5,24.7-20,32.9-23.2c1.9-0.7,1.6,2.4-3.2,8.8
		c-5.9,7.7-38.2,43.3-45.1,24.2c-1.3-3.6,2.4-11.8-1.3-14.3c-2.9-1.9-8.1,3-10.2,3.9c-9.5,4.2-6.6-2.2-1.1-7.3
		c4.2-4,13.8-11.8,20-11.7C331.4,565.5,323,582.3,325.9,584.8z"/>
	<path id="XMLID_106_" class="st0" d="M338.9,686.7c-2.1,0-3.2-1.3-2.5-3c6.8-15.8,139.2-171.7,150.5-184.9
		c5.7-6.7,8.5-9.7,14.6-16.1c0.5-0.5,16.8-15.6,15.7-10.4c-3.1,14.8-18.1,26.7-27,38C480.8,522.2,353.3,678.2,338.9,686.7
		C337.1,687.7,339.1,686.6,338.9,686.7z"/>
	<path id="XMLID_105_" class="st1" d="M650.8,554.2c11.8-3.6,11.2-9.9,16.1-20.3c-3.4,7.2-23.5-1.6-28.5,5.4
		C632.1,548.5,641.3,557.1,650.8,554.2z"/>
	<path id="XMLID_104_" class="st2" d="M772.3,420.6c21.3-24.8,44.6-49,59.7-78.7c-61.3,55.7-123.5,116.2-164,190
		c11-18.6,36.9-33.7,51.3-50.1C737.2,461.5,754.7,441.1,772.3,420.6C787.9,402.5,761.3,433.4,772.3,420.6z"/>
</g>
</svg>
